<?xml version="1.0" encoding="UTF-8" standalone="no"?>
<svg
   xmlns:dc="http://purl.org/dc/elements/1.1/"
   xmlns:cc="http://creativecommons.org/ns#"
   xmlns:rdf="http://www.w3.org/1999/02/22-rdf-syntax-ns#"
   xmlns:svg="http://www.w3.org/2000/svg"
   xmlns="http://www.w3.org/2000/svg"
   viewBox="0 0 2560 1440"
   height="1440"
   width="2560"
   xml:space="preserve"
   id="svg2"
   version="1.1"><metadata
     id="metadata8"><rdf:RDF><cc:Work
         rdf:about=""><dc:format>image/svg+xml</dc:format><dc:type
           rdf:resource="http://purl.org/dc/dcmitype/StillImage" /></cc:Work></rdf:RDF></metadata><defs
     id="defs6">
      <style type="text/css">
        @font-face {
          font-family: 'Exo';
          src: url('../fonts/EXOREGULAR.ttf') format('truetype');
            src: url('../fonts/EXOREGULAR.eot') format('embedded-opentype'),
                 url('../fonts/EXOREGULAR.woff2') format('woff2'),
                 url('../fonts/EXOREGULAR.woff') format('woff'),
                 url('../fonts/EXOREGULAR.ttf') format('truetype'),
                 url('../fonts/EXOREGULAR.svg#EXOREGULAR') format('svg');
        }
      </style>
     <linearGradient
       id="linearGradient66"
       spreadMethod="pad"
       gradientTransform="matrix(-98.607277,-98.607277,-98.607277,98.607277,732.71643,605.55475)"
       gradientUnits="userSpaceOnUse"
       y2="0"
       x2="1"
       y1="0"
       x1="0"><stop
         id="stop58"
         offset="0"
         style="stop-opacity:1;stop-color:#25634a" /><stop
         id="stop60"
         offset="0.0000002"
         style="stop-opacity:1;stop-color:#25634a" /><stop
         id="stop62"
         offset="1"
         style="stop-opacity:1;stop-color:#52b58d" /><stop
         id="stop64"
         offset="1"
         style="stop-opacity:1;stop-color:#52b58d" /></linearGradient><linearGradient
       id="linearGradient90"
       spreadMethod="pad"
       gradientTransform="matrix(110.08588,0,0,-110.08588,637.18292,565.48633)"
       gradientUnits="userSpaceOnUse"
       y2="0"
       x2="1"
       y1="0"
       x1="0"><stop
         id="stop82"
         offset="0"
         style="stop-opacity:1;stop-color:#25634a" /><stop
         id="stop84"
         offset="0.0000002"
         style="stop-opacity:1;stop-color:#25634a" /><stop
         id="stop86"
         offset="1"
         style="stop-opacity:1;stop-color:#52b58d" /><stop
         id="stop88"
         offset="1"
         style="stop-opacity:1;stop-color:#52b58d" /></linearGradient><linearGradient
       id="linearGradient114"
       spreadMethod="pad"
       gradientTransform="matrix(70.222321,70.222321,70.222321,-70.222321,663.01611,537.07477)"
       gradientUnits="userSpaceOnUse"
       y2="0"
       x2="1"
       y1="0"
       x1="0"><stop
         id="stop106"
         offset="0"
         style="stop-opacity:1;stop-color:#25634a" /><stop
         id="stop108"
         offset="0.0000002"
         style="stop-opacity:1;stop-color:#25634a" /><stop
         id="stop110"
         offset="1"
         style="stop-opacity:1;stop-color:#52b58d" /><stop
         id="stop112"
         offset="1"
         style="stop-opacity:1;stop-color:#52b58d" /></linearGradient></defs><g
     transform="matrix(1.3333333,0,0,-1.3333333,0,1440)"
     id="g10"><text
       id="text20"
       style="font-variant:normal;font-weight:normal;font-stretch:normal;font-size:40.61600113px;font-family:Exo;-inkscape-font-specification:Exo-Regular;writing-mode:lr-tb;fill:#666666;fill-opacity:1;fill-rule:nonzero;stroke:none"
       transform="matrix(1,0,0,-1,830.1553,453.6641)"><tspan
         id="tspan12"
         y="0"
         x="0 20.91724 45.571152 67.869339 76.683006 103.73326 130.41797 162.82954 185.98067 209.98473 218.79839 241.70581 268.39053">LATINAMERICA </tspan><tspan
         id="tspan14"
         y="0"
         x="278.66638 287.48004">IT</tspan><tspan
         id="tspan16"
         y="0"
         x="309.77823"> </tspan><tspan
         id="tspan18"
         y="0"
         x="320.05408 340.97131 361.68549">LLC</tspan></text>
<g
       transform="translate(833.1626,508.6777)"
       id="g22"><path
         id="path24"
         style="fill:#666666;fill-opacity:1;fill-rule:nonzero;stroke:none"
         d="M 0,0 V 107.3 H 14.648 V 13.184 H 63.135 L 63.135,0 Z" /></g><g
       transform="translate(943.2456,589.3174)"
       id="g26"><path
         id="path28"
         style="fill:#666666;fill-opacity:1;fill-rule:nonzero;stroke:none"
         d="m 0,0 -16.626,-47.241 h 31.86 z m 26.807,-80.64 -7.397,22.632 h -39.918 l -7.91,-22.632 H -44.824 L -1.245,28.125 H 2.637 L 43.067,-80.64 Z" /></g><g
       transform="translate(1022.1279,602.7939)"
       id="g30"><path
         id="path32"
         style="fill:#666666;fill-opacity:1;fill-rule:nonzero;stroke:none"
         d="M 0,0 V -94.116 H -14.648 V 0 H -48.779 V 13.184 H 35.669 V 0 Z" /></g><path
       id="path34"
       style="fill:#666666;fill-opacity:1;fill-rule:nonzero;stroke:none"
       d="m 1072.665,615.978 h 14.648 v -107.3 h -14.648 z" /><g
       transform="translate(1181.21,507.2129)"
       id="g36"><path
         id="path38"
         style="fill:#666666;fill-opacity:1;fill-rule:nonzero;stroke:none"
         d="M 0,0 -55.444,78.442 V 1.465 H -69.36 v 107.3 h 5.859 L -9.521,34.57 v 74.195 H 4.395 V 0 Z" /></g><path
       id="path40"
       style="fill:#52ab8d;fill-opacity:1;fill-rule:nonzero;stroke:none"
       d="m 1210.141,615.978 h 14.648 v -107.3 h -14.648 z" /><g
       transform="translate(1288.4365,602.7939)"
       id="g42"><path
         id="path44"
         style="fill:#52ab8d;fill-opacity:1;fill-rule:nonzero;stroke:none"
         d="M 0,0 V -94.116 H -14.648 V 0 H -48.779 V 13.184 H 35.669 V 0 Z" /></g><g
       id="g46"><g
         id="g48"><g
           id="g54"><g
             id="g56"><path
               id="path68"
               style="fill:url(#linearGradient66);stroke:none"
               d="m 595.863,551.642 c 0,-45.807 37.134,-82.941 82.941,-82.941 v 0 c 45.808,0 82.942,37.134 82.942,82.941 v 0 c 0,45.809 -37.134,82.943 -82.942,82.943 v 0 c -45.807,0 -82.941,-37.134 -82.941,-82.943" /></g></g></g></g><g
       id="g70"><g
         id="g72"><g
           id="g78"><g
             id="g80"><path
               id="path92"
               style="fill:url(#linearGradient90);stroke:none"
               d="m 637.183,565.897 c 0,-29.042 22.497,-52.814 51.014,-54.88 v 0 c -0.072,-0.01 -0.142,-0.023 -0.215,-0.033 v 0 c 34.669,-5.197 52.337,12.567 52.337,12.567 v 0 l -3.543,1.181 -5.766,2.113 c 10.039,9.972 16.258,23.784 16.258,39.052 v 0 c 0,30.401 -24.643,55.044 -55.042,55.044 v 0 c -30.4,0 -55.043,-24.643 -55.043,-55.044" /></g></g></g></g><g
       id="g94"><g
         id="g96"><g
           id="g102"><g
             id="g104"><path
               id="path116"
               style="fill:url(#linearGradient114);stroke:none"
               d="m 651.22,616.106 6.936,-6.577 c -10.721,-10.043 -17.429,-24.318 -17.429,-40.167 v 0 c 0,-29.043 22.497,-52.814 51.013,-54.881 v 0 c -0.072,-0.01 -0.142,-0.023 -0.213,-0.033 v 0 c 34.669,-5.197 48.792,9.103 48.792,9.103 v 0 l -5.766,6.759 c 10.04,9.97 16.26,23.784 16.26,39.052 v 0 c 0,27.957 -20.848,51.029 -47.842,54.558 v 0 c 0.048,0.006 0.094,0.014 0.141,0.018 v 0 c -5.668,0.688 -10.822,0.979 -15.483,0.979 v 0 c -25.653,0 -36.409,-8.811 -36.409,-8.811" /></g></g></g></g></g></svg>