<?xml version="1.0" encoding="utf-8"?>
<!-- Generator: Adobe Illustrator 19.2.0, SVG Export Plug-In . SVG Version: 6.00 Build 0)  -->
<svg version="1.1" xmlns="http://www.w3.org/2000/svg" xmlns:xlink="http://www.w3.org/1999/xlink" x="0px" y="0px"
	 viewBox="0 0 1920 1080" style="enable-background:new 0 0 1920 1080;" xml:space="preserve">
<style type="text/css">
	.st0{fill:#666666;}
	.st1{fill:#52AB8D;}
	.st2{fill:url(#SVGID_1_);}
	.st3{fill:url(#SVGID_2_);}
	.st4{fill:url(#SVGID_3_);}
</style>
<g id="Layer_5">
	<g>
		<path class="st0" d="M834.9,625c-1.1-0.9-1.6-2.5-1.6-4.7v-23.9h3.2v23.4c0,1.3,0.3,2.2,0.9,2.7c0.6,0.5,1.5,0.8,2.5,0.8h10.7v3
			h-11.4C837.4,626.3,835.9,625.9,834.9,625z"/>
		<path class="st0" d="M862.7,596.4h4.1l10.2,29.9h-3.3l-3-8.5h-12l-2.9,8.5h-3.3L862.7,596.4z M869.9,614.9l-5.2-15.6l-5.2,15.6
			H869.9z"/>
		<path class="st0" d="M885.6,599.4h-9.3v-2.9h21.7v2.9h-9.2v27h-3.2V599.4z"/>
		<path class="st0" d="M901.2,596.4h3.2v29.9h-3.2V596.4z"/>
		<path class="st0" d="M910.5,596.4h2.6l15.6,24.3v-24.3h3.2v29.9h-2.6L913.7,602v24.3h-3.2V596.4z"/>
		<path class="st0" d="M945.5,596.4h4.1l10.2,29.9h-3.3l-3-8.5h-12l-2.9,8.5h-3.3L945.5,596.4z M952.7,614.9l-5.2-15.6l-5.2,15.6
			H952.7z"/>
		<path class="st0" d="M989,626.3l-2.8-24.8l-7.2,24.8h-3l-7.3-24.6l-2.7,24.6h-3.1l3.4-29.9h3.3l8,25.8l7.8-25.8h3.3l3.5,29.9H989z
			"/>
		<path class="st0" d="M997.9,625.3c-1.2-0.8-1.8-2.3-1.8-4.6v-18.2c0-2.1,0.6-3.6,1.7-4.6c1.1-0.9,2.5-1.4,4.2-1.4
			c4.3,0.1,7.7,0.2,10.1,0.3l2.4,0.1v2.6h-11.7c-2.3,0-3.5,1.2-3.5,3.6v7.1l13.4,0.2v2.5l-13.4,0.2v7c0,1.4,0.3,2.3,1,2.8
			c0.6,0.5,1.5,0.7,2.6,0.7h11.5v2.6c-5.1,0.3-9.2,0.4-12.3,0.4C1000.5,626.5,999.1,626.1,997.9,625.3z"/>
		<path class="st0" d="M1019.3,596.4h11.8c2.3,0,4.2,0.6,5.6,1.9c1.4,1.2,2.1,3.6,2.1,6.9c0,2.9-0.5,4.9-1.6,6.1s-2.4,1.9-4.1,2.3
			l6.1,12.7h-3.3l-5.8-12.2l-2.2,0l-5.4-0.1v12.4h-3.2V596.4z M1030.6,611.5c1.6,0,2.8-0.4,3.7-1.3c0.9-0.9,1.3-2.5,1.3-4.9
			c0-2.3-0.4-3.8-1.3-4.7c-0.9-0.8-2.1-1.2-3.7-1.2h-8v12.1H1030.6z"/>
		<path class="st0" d="M1043.3,596.4h3.2v29.9h-3.2V596.4z"/>
		<path class="st0" d="M1055.8,625.4c-1.5-0.8-2.6-2.3-3.3-4.5c-0.7-2.2-1.1-5.4-1.1-9.6c0-4,0.4-7.1,1.1-9.2
			c0.8-2.2,1.9-3.7,3.5-4.6c1.5-0.9,3.6-1.3,6.2-1.3c1.2,0,2.7,0.1,4.3,0.3s3,0.5,4.3,0.8v2.4c-0.9-0.1-2.2-0.3-3.7-0.4
			c-1.5-0.1-3-0.2-4.4-0.2c-2,0-3.6,0.3-4.8,1c-1.1,0.7-2,1.9-2.5,3.6c-0.5,1.7-0.8,4.3-0.8,7.7c0,3.5,0.2,6.1,0.8,7.8
			c0.5,1.7,1.3,2.9,2.4,3.6c1.1,0.6,2.7,1,4.8,1c3.4,0,6.2-0.2,8.2-0.5v2.4c-1.2,0.3-2.6,0.5-4.2,0.7c-1.6,0.2-3.1,0.3-4.6,0.3
			C1059.3,626.6,1057.3,626.2,1055.8,625.4z"/>
		<path class="st0" d="M1083.5,596.4h4.1l10.2,29.9h-3.3l-3-8.5h-12l-2.9,8.5h-3.3L1083.5,596.4z M1090.7,614.9l-5.2-15.6l-5.2,15.6
			H1090.7z"/>
		<path class="st1" d="M1111.9,596.4h3.2v29.9h-3.2V596.4z"/>
		<path class="st1" d="M1127.5,599.4h-9.3v-2.9h21.7v2.9h-9.2v27h-3.2V599.4z"/>
		<path class="st0" d="M1154.9,625c-1.1-0.9-1.6-2.5-1.6-4.7v-23.9h3.2v23.4c0,1.3,0.3,2.2,0.9,2.7c0.6,0.5,1.5,0.8,2.5,0.8h10.7v3
			h-11.4C1157.4,626.3,1156,625.9,1154.9,625z"/>
		<path class="st0" d="M1175.8,625c-1.1-0.9-1.6-2.5-1.6-4.7v-23.9h3.2v23.4c0,1.3,0.3,2.2,0.9,2.7c0.6,0.5,1.5,0.8,2.5,0.8h10.7v3
			h-11.4C1178.4,626.3,1176.9,625.9,1175.8,625z"/>
		<path class="st0" d="M1198.7,625.4c-1.5-0.8-2.6-2.3-3.3-4.5c-0.7-2.2-1.1-5.4-1.1-9.6c0-4,0.4-7.1,1.1-9.2
			c0.8-2.2,1.9-3.7,3.5-4.6c1.5-0.9,3.6-1.3,6.2-1.3c1.2,0,2.7,0.1,4.3,0.3s3,0.5,4.3,0.8v2.4c-0.9-0.1-2.2-0.3-3.7-0.4
			c-1.5-0.1-3-0.2-4.4-0.2c-2,0-3.6,0.3-4.8,1c-1.1,0.7-2,1.9-2.5,3.6c-0.5,1.7-0.8,4.3-0.8,7.7c0,3.5,0.2,6.1,0.8,7.8
			c0.5,1.7,1.3,2.9,2.4,3.6c1.1,0.6,2.7,1,4.8,1c3.4,0,6.2-0.2,8.2-0.5v2.4c-1.2,0.3-2.6,0.5-4.2,0.7c-1.6,0.2-3.1,0.3-4.6,0.3
			C1202.2,626.6,1200.2,626.2,1198.7,625.4z"/>
	</g>
</g>
<g id="Layer_4">
	<g>
		<path class="st0" d="M833.2,571.3V464h14.6v94.1h48.5v13.2H833.2z"/>
		<path class="st0" d="M970.1,571.3l-7.4-22.6h-39.9l-7.9,22.6h-16.4L942,462.6h3.9l40.4,108.8H970.1z M943.2,490.7l-16.6,47.2h31.9
			L943.2,490.7z"/>
		<path class="st0" d="M1022.1,477.2v94.1h-14.6v-94.1h-34.1V464h84.4v13.2H1022.1z"/>
		<path class="st0" d="M1072.7,571.3V464h14.6v107.3H1072.7z"/>
		<path class="st0" d="M1181.2,572.8l-55.4-78.4v77h-13.9V464h5.9l54,74.2V464h13.9v108.8H1181.2z"/>
		<path class="st1" d="M1210.1,571.3V464h14.6v107.3H1210.1z"/>
		<path class="st1" d="M1288.4,477.2v94.1h-14.6v-94.1h-34.1V464h84.4v13.2H1288.4z"/>
	</g>
</g>
<g id="Layer_3">
	<linearGradient id="SVGID_1_" gradientUnits="userSpaceOnUse" x1="732.7164" y1="474.4453" x2="634.1092" y2="573.0526">
		<stop  offset="1.982887e-07" style="stop-color:#25634A"/>
		<stop  offset="1" style="stop-color:#52B58D"/>
	</linearGradient>
	<circle class="st2" cx="678.8" cy="528.4" r="82.9"/>
</g>
<g id="Layer_2">
	<g>
		<linearGradient id="SVGID_2_" gradientUnits="userSpaceOnUse" x1="637.1829" y1="514.5137" x2="747.2688" y2="514.5137">
			<stop  offset="1.982887e-07" style="stop-color:#25634A"/>
			<stop  offset="1" style="stop-color:#52B58D"/>
		</linearGradient>
		<path class="st3" d="M747.3,514.1c0-30.4-24.6-55-55-55c-30.4,0-55,24.6-55,55c0,29,22.5,52.8,51,54.9c-0.1,0-0.1,0-0.2,0
			c34.7,5.2,52.3-12.6,52.3-12.6l-3.5-1.2l-5.8-2.1C741,543.2,747.3,529.4,747.3,514.1z"/>
		<linearGradient id="SVGID_3_" gradientUnits="userSpaceOnUse" x1="663.0161" y1="542.9252" x2="733.2385" y2="472.7029">
			<stop  offset="1.982887e-07" style="stop-color:#25634A"/>
			<stop  offset="1" style="stop-color:#52B58D"/>
		</linearGradient>
		<path class="st4" d="M750.8,510.6c0-28-20.8-51-47.8-54.6c0,0,0.1,0,0.1,0c-36.9-4.5-51.9,7.8-51.9,7.8l6.9,6.6
			c-10.7,10-17.4,24.3-17.4,40.2c0,29,22.5,52.8,51,54.9c-0.1,0-0.1,0-0.2,0c34.7,5.2,48.8-9.1,48.8-9.1l-5.8-6.8
			C744.6,539.7,750.8,525.9,750.8,510.6z"/>
	</g>
</g>
</svg>
